<svg id="Capa_1" data-name="Capa 1" xmlns="http://www.w3.org/2000/svg" viewBox="0 0 161.59 149"><defs><style>.cls-1{fill:#008f96;}.cls-2{fill:#005e68;}.cls-3{fill:#fff;}</style></defs><circle class="cls-1" cx="74.5" cy="74.5" r="74.5"/><path class="cls-2" d="M22.33,70.84s3,7,10,5,9-11,9-11,5-14,6-21c0,0,1-13,7-19a37.91,37.91,0,0,1,6,12c1.14,4,3.3,10,4.67,15.16,1.83,6.88,2.33,11.84,8.83,24.2,0,0,2.41,5.33,7.5,7.64,4.87,2.21,13.87,3.21,19-1,2.15-1.76,4-5.58,6-9L120,44c3.58-6,5-8,8-10l5.5-3.5S131,22,121,28c-3.41,2-6,5-9,8-.72.72-7,7-9,11a48,48,0,0,1-7,10c-1,1-6.08,2-8,3s-5-2-6-3c-1.32-1.32.52-4.45.33-5.16,0,0-9.41-42.22-25.7-41.11l-4.38.47a15,15,0,0,0-9.79,5.16l-2.13,2.48h0A30.82,30.82,0,0,0,33.8,32.5l-1.47,7.34C25.33,15.84,12,15,12,15c-23-1-24.67,39.84-24.67,39.84s1.67,7.16,15-1c0,0,4-16.78,7-22.89,0,0,4,3.89,7,15.89,1.17,4.68,2,9,3,13C20.89,66.05,22.33,70.84,22.33,70.84Z" transform="translate(28 26)"/><path class="cls-3" d="M30,75s3,7,10,5,9-11,9-11,5-14,6-21c0,0,1-13,7-19a37.91,37.91,0,0,1,6,12c1.13,4,2.63,9.85,4,15,1.83,6.88,3,12,9.5,24.36,0,0,2.41,5.33,7.5,7.64,4.87,2.21,13.87,3.21,19-1,2.15-1.76,3.94-5.57,6-9l11.08-30.88a72,72,0,0,1,7.68-15.32l.83-1.26S132,30,128,32c-3.22,1.61-7,5-10,8-.72.72-6,7-8,11a37.37,37.37,0,0,1-6,9,14.22,14.22,0,0,1-4,3c-2,1-6,1-7,0-1.32-1.32-2.81-6.29-3-7,0,0-9.41-42.22-25.71-41.11l-4.37.47a15,15,0,0,0-9.79,5.16L48,23h0a30.71,30.71,0,0,0-6.53,13.66L40,44C33,20,19,20,19,20-4,19-5,59-5,59s5,8,15-1c0,0,4-16.78,7-22.89,0,0,4,3.89,7,15.89,1.17,4.68,2,9,3,13C28.55,70.21,30,75,30,75Z" transform="translate(28 26)"/></svg>